<svg xmlns="http://www.w3.org/2000/svg" viewBox="0 0 180 28.63">
<g id="レイヤー_2">
<g id="contents"><path class="cls-1" d="M179.86.14a.44.44,0,0,0-.33-.14.47.47,0,0,0-.33.14L151.51,27.83a.47.47,0,0,0,0,.66.46.46,0,0,0,.66,0L179.86.8a.45.45,0,0,0,0-.66" style="fill:#d74497"></path>
<path class="cls-2" d="M39.7,0A14.31,14.31,0,1,0,54,14.33,14.32,14.32,0,0,0,39.7,0m0,27.67A13.37,13.37,0,1,1,53.06,14.33,13.37,13.37,0,0,1,39.7,27.69M71.33,0a14.29,14.29,0,1,0,14.29,14.3A14.32,14.32,0,0,0,71.33,0m0,27.65A13.36,13.36,0,1,1,84.68,14.32,13.37,13.37,0,0,1,71.33,27.67m77.22.25L134.73.28a.46.46,0,0,0-.42-.25.44.44,0,0,0-.42.25L120.06,27.92a.5.5,0,0,0,0,.46.47.47,0,0,0,.4.22h27.65a.47.47,0,0,0,.42-.68m-27.31-.26L134.31,1.53l13.06,26.13Zm-93.12,0H.94V.49A.47.47,0,0,0,0,.49V28.14a.46.46,0,0,0,.47.46H28.12a.46.46,0,0,0,.47-.46.47.47,0,0,0-.47-.47M116.77,0H89.13a.47.47,0,0,0-.47.47V28.14a.47.47,0,0,0,.94,0V1h26.71V28.14a.46.46,0,0,0,.46.47.47.47,0,0,0,.47-.47V.49a.47.47,0,0,0-.47-.47" style="fill:#221e1f"></path>
</g>
</g>
</svg>